<svg xmlns="http://www.w3.org/2000/svg" viewBox="0 0 308.88 85.04"><defs><style>.cls-1{fill:#fff;}.cls-2{fill:#589ca9;}.cls-3{fill:#1c3239;}</style></defs><g id="Capa_2" data-name="Capa 2"><g id="Capa_3" data-name="Capa 3"><path class="cls-1" d="M111.38,50.88h1.27a1,1,0,0,0,1-1V27.31l14.52,24.31a1,1,0,0,0,.85.49.84.84,0,0,0,.27,0,1,1,0,0,0,.73-1V20.28a1,1,0,0,0-1-1h-1.27a1,1,0,0,0-1,1V42.86L112.24,18.54a1,1,0,0,0-.86-.48l-.26,0a1,1,0,0,0-.73,1V49.89A1,1,0,0,0,111.38,50.88Z"/><path class="cls-1" d="M149.68,49.65v.24a1,1,0,0,0,1,1H152a1,1,0,0,0,1-1V35.46c0-6.67-4.32-9.66-8.61-9.66a11.88,11.88,0,0,0-8.47,3.41,1,1,0,0,0-.3.73,1,1,0,0,0,.32.72l.93.84a1,1,0,0,0,1.36,0,8.42,8.42,0,0,1,6.16-2.42c2.42,0,5,1.47,5.32,5.52a11.46,11.46,0,0,0-6.37-1.84,10.51,10.51,0,0,0-6.93,2.46,8.83,8.83,0,0,0-3,6.78,8.93,8.93,0,0,0,3.05,6.81,10.43,10.43,0,0,0,6.92,2.51A12.47,12.47,0,0,0,149.68,49.65ZM136.57,42c0-3.93,3.37-6,6.71-6a8.26,8.26,0,0,1,6.4,2.84v6.63a8.56,8.56,0,0,1-6.4,2.59C140,48.05,136.57,45.92,136.57,42Z"/><path class="cls-1" d="M172.24,33.27a5.64,5.64,0,0,1,.41,2.24V49.89a1,1,0,0,0,1,1h1.27a1,1,0,0,0,1-1V35.42a8.81,8.81,0,0,0-.62-3.31c-1.46-3.95-5.08-6.31-9.68-6.31a13.39,13.39,0,0,0-6.07,1.47V12.12a1,1,0,0,0-1-1h-1.27a1,1,0,0,0-1,1V49.89a1,1,0,0,0,1,1h1.27a1,1,0,0,0,1-1V31.1a9.79,9.79,0,0,1,6-2C168.78,29.06,171.28,30.63,172.24,33.27Z"/><rect class="cls-1" x="178.99" y="19.29" width="4.1" height="4.1" rx="0.99"/><rect class="cls-1" x="179.42" y="26.22" width="3.26" height="24.66" rx="0.99"/><path class="cls-1" d="M187.43,50.88h1.27a1,1,0,0,0,1-1V31.1a10.17,10.17,0,0,1,6.16-2,1,1,0,0,0,1-1V26.79a1,1,0,0,0-1-1,13.53,13.53,0,0,0-6.16,1.49v-.07a1,1,0,0,0-1-1h-1.27a1,1,0,0,0-1,1V49.89A1,1,0,0,0,187.43,50.88Z"/><rect class="cls-1" x="198.87" y="19.29" width="4.1" height="4.1" rx="0.99"/><rect class="cls-1" x="199.29" y="26.22" width="3.26" height="24.66" rx="0.99"/><path class="cls-1" d="M237.33,18.6a1,1,0,0,0-.24,0,1,1,0,0,0-.88.52l-10,18.79-10-18.79a1,1,0,0,0-.88-.52,1,1,0,0,0-1,1V50.18a1,1,0,0,0,1,1h1.27a1,1,0,0,0,1-1V28.57l7.77,14.59a1,1,0,0,0,1.75,0l7.77-14.59V50.18a1,1,0,0,0,1,1h1.27a1,1,0,0,0,1-1V19.56A1,1,0,0,0,237.33,18.6Z"/><path class="cls-1" d="M252.4,26.1a11.84,11.84,0,0,0-8.47,3.4,1,1,0,0,0-.31.73A1,1,0,0,0,244,31l.93.84a1,1,0,0,0,.66.26,1,1,0,0,0,.7-.28,8.41,8.41,0,0,1,6.16-2.43c2.41,0,5,1.47,5.31,5.52A11.52,11.52,0,0,0,251.34,33a10.52,10.52,0,0,0-6.93,2.47,8.82,8.82,0,0,0-3,6.77,8.93,8.93,0,0,0,3,6.82,10.45,10.45,0,0,0,6.92,2.51A12.58,12.58,0,0,0,257.75,50v.23a1,1,0,0,0,1,1H260a1,1,0,0,0,1-1V35.76C261,29.08,256.68,26.1,252.4,26.1Zm5.35,19.66a8.56,8.56,0,0,1-6.41,2.58c-3.25,0-6.7-2.12-6.7-6.07s3.37-6,6.7-6a8.28,8.28,0,0,1,6.41,2.84Z"/><rect class="cls-1" x="264.51" y="26.52" width="3.26" height="24.66" rx="0.99"/><rect class="cls-1" x="264.09" y="19.58" width="4.1" height="4.1" rx="0.99"/><path class="cls-1" d="M282.23,48.78a1,1,0,0,0-1-.86h-.11c-.32,0-.62,0-.86,0-3.48,0-5.48-2.09-5.48-5.73V29.78h5.69a1,1,0,0,0,1-1V27.51a1,1,0,0,0-1-1h-5.69V20.15a1,1,0,0,0-1-1h-1.27a1,1,0,0,0-1,1v6.37h-.9a1,1,0,0,0-1,1v1.27a1,1,0,0,0,1,1h.9V42.23A9,9,0,0,0,274.1,49a8.78,8.78,0,0,0,6.17,2.22,11,11,0,0,0,1.25,0,1,1,0,0,0,.67-.37,1,1,0,0,0,.21-.75Z"/><path class="cls-1" d="M296.13,26.1a12.75,12.75,0,1,0,12.75,12.75A12.76,12.76,0,0,0,296.13,26.1Zm0,22.24a9.5,9.5,0,1,1,9.5-9.49A9.51,9.51,0,0,1,296.13,48.34Z"/><path class="cls-2" d="M110.7,64.49V62.28h4v2.21Z"/><path class="cls-2" d="M126.63,64.13a3.22,3.22,0,0,1-.43,1.59,3.08,3.08,0,0,1-1.32,1.22,5,5,0,0,1-2.3.47,10.82,10.82,0,0,1-1.24-.07,5.05,5.05,0,0,1-1-.21,7.69,7.69,0,0,1-1-.37V64.27a8.34,8.34,0,0,0,1.69.64,6.26,6.26,0,0,0,1.55.23,2.08,2.08,0,0,0,.68-.1.94.94,0,0,0,.4-.27.7.7,0,0,0,.12-.4.65.65,0,0,0-.18-.46,2.83,2.83,0,0,0-.6-.39q-.4-.21-1.08-.51a11.09,11.09,0,0,1-1-.55,3.66,3.66,0,0,1-.79-.65,2.33,2.33,0,0,1-.5-.85,3.35,3.35,0,0,1-.18-1.15,2.73,2.73,0,0,1,.49-1.67,3,3,0,0,1,1.37-1,5.8,5.8,0,0,1,2-.34,6.76,6.76,0,0,1,1.82.23,9.53,9.53,0,0,1,1.46.52l-.86,2.15a9.06,9.06,0,0,0-1.31-.48,4.41,4.41,0,0,0-1.19-.18,1.91,1.91,0,0,0-.59.08.74.74,0,0,0-.34.24.58.58,0,0,0-.11.34.59.59,0,0,0,.19.43,2.25,2.25,0,0,0,.63.42c.29.14.69.34,1.2.57a7.32,7.32,0,0,1,1.29.73,2.79,2.79,0,0,1,.81.94A3.08,3.08,0,0,1,126.63,64.13Z"/><path class="cls-2" d="M135.71,63.24a5.36,5.36,0,0,1-.28,1.78,3.4,3.4,0,0,1-.8,1.31,3.44,3.44,0,0,1-1.26.8,4.93,4.93,0,0,1-1.68.28,4.5,4.5,0,0,1-1.59-.28,3.61,3.61,0,0,1-1.26-.8A3.46,3.46,0,0,1,128,65a4.88,4.88,0,0,1-.3-1.78A4.66,4.66,0,0,1,128.2,61a3.22,3.22,0,0,1,1.38-1.4,4.52,4.52,0,0,1,2.15-.48,4.25,4.25,0,0,1,2.05.48,3.4,3.4,0,0,1,1.41,1.4A4.45,4.45,0,0,1,135.71,63.24Zm-5.19,0a4.75,4.75,0,0,0,.12,1.16,1.46,1.46,0,0,0,.38.71,1,1,0,0,0,.7.25,1,1,0,0,0,.69-.25,1.45,1.45,0,0,0,.37-.71,5.37,5.37,0,0,0,.11-1.16,5.17,5.17,0,0,0-.11-1.14,1.34,1.34,0,0,0-.38-.69,1,1,0,0,0-.69-.24,1,1,0,0,0-.91.53A3.28,3.28,0,0,0,130.52,63.24Z"/><path class="cls-2" d="M140.05,67.26h-2.77v-11h2.77Z"/><path class="cls-2" d="M149.75,59.26v8h-2.09l-.34-1h-.16a2.17,2.17,0,0,1-.63.65,2.66,2.66,0,0,1-.84.37,3.69,3.69,0,0,1-.95.12,3.29,3.29,0,0,1-1.42-.31,2.24,2.24,0,0,1-1-.95,3.34,3.34,0,0,1-.37-1.68V59.26h2.76v4.37a2.55,2.55,0,0,0,.22,1.19.76.76,0,0,0,.73.4,1.09,1.09,0,0,0,.81-.28,1.58,1.58,0,0,0,.4-.84,6.33,6.33,0,0,0,.12-1.34v-3.5Z"/><path class="cls-2" d="M155.3,67.41a4.79,4.79,0,0,1-2.11-.44,3.1,3.1,0,0,1-1.39-1.34,4.85,4.85,0,0,1-.49-2.33,4.58,4.58,0,0,1,.55-2.38,3.32,3.32,0,0,1,1.5-1.37,5.18,5.18,0,0,1,2.16-.43,5.78,5.78,0,0,1,1.4.16,6.27,6.27,0,0,1,1.22.44l-.81,2.05a6.77,6.77,0,0,0-.92-.35,3,3,0,0,0-.89-.13,1.28,1.28,0,0,0-.73.21,1.46,1.46,0,0,0-.5.67,3,3,0,0,0-.17,1.12,2.86,2.86,0,0,0,.18,1.11,1.26,1.26,0,0,0,.5.62,1.48,1.48,0,0,0,.74.19,4.05,4.05,0,0,0,1.19-.19,4.88,4.88,0,0,0,1.14-.52v2.2a4,4,0,0,1-1.12.51A4.84,4.84,0,0,1,155.3,67.41Z"/><path class="cls-2" d="M160.87,56a2.12,2.12,0,0,1,1,.25,1.3,1.3,0,0,1,0,1.95,2,2,0,0,1-1,.25,2,2,0,0,1-1-.25,1.32,1.32,0,0,1,0-1.95A2.08,2.08,0,0,1,160.87,56Zm1.37,3.23v8h-2.77v-8Z"/><path class="cls-2" d="M171.81,63.24a5.37,5.37,0,0,1-.27,1.78,3.53,3.53,0,0,1-.8,1.31,3.4,3.4,0,0,1-1.27.8,4.83,4.83,0,0,1-1.67.28,4.59,4.59,0,0,1-1.6-.28A3.48,3.48,0,0,1,164.11,65a5.11,5.11,0,0,1-.29-1.78A4.78,4.78,0,0,1,164.3,61a3.29,3.29,0,0,1,1.39-1.4,4.52,4.52,0,0,1,2.15-.48,4.28,4.28,0,0,1,2,.48A3.4,3.4,0,0,1,171.3,61,4.55,4.55,0,0,1,171.81,63.24Zm-5.19,0a4.26,4.26,0,0,0,.13,1.16,1.38,1.38,0,0,0,.38.71,1,1,0,0,0,.7.25,1,1,0,0,0,.68-.25,1.37,1.37,0,0,0,.37-.71,4.75,4.75,0,0,0,.12-1.16,4.58,4.58,0,0,0-.12-1.14,1.27,1.27,0,0,0-.37-.69,1,1,0,0,0-.7-.24,1,1,0,0,0-.91.53A3.41,3.41,0,0,0,166.62,63.24Z"/><path class="cls-2" d="M178.4,59.12a2.91,2.91,0,0,1,2,.7,2.86,2.86,0,0,1,.78,2.24v5.2h-2.76V62.9a2.54,2.54,0,0,0-.23-1.21.78.78,0,0,0-.74-.4,1,1,0,0,0-1.05.63,4.92,4.92,0,0,0-.27,1.84v3.5h-2.76v-8h2.08l.38,1.06h.1a2.71,2.71,0,0,1,.61-.65,2.58,2.58,0,0,1,.81-.41A3.33,3.33,0,0,1,178.4,59.12Z"/><path class="cls-2" d="M186.69,59.12a4.62,4.62,0,0,1,2,.4A2.92,2.92,0,0,1,190,60.74a4.05,4.05,0,0,1,.46,2V64h-4.94a1.46,1.46,0,0,0,.47,1,1.82,1.82,0,0,0,1.28.4,6,6,0,0,0,1.38-.15,6.94,6.94,0,0,0,1.29-.46v2a4.77,4.77,0,0,1-1.27.44,8.29,8.29,0,0,1-1.73.15,5.11,5.11,0,0,1-2.16-.44,3.23,3.23,0,0,1-1.5-1.33,4.39,4.39,0,0,1-.55-2.33,5,5,0,0,1,.49-2.37,3.14,3.14,0,0,1,1.39-1.38A4.51,4.51,0,0,1,186.69,59.12Zm.1,1.88a1.17,1.17,0,0,0-.82.3,1.42,1.42,0,0,0-.38,1H188a1.72,1.72,0,0,0-.14-.65,1.07,1.07,0,0,0-.39-.45A1.11,1.11,0,0,0,186.79,61Z"/><path class="cls-2" d="M198,64.8a2.6,2.6,0,0,1-.34,1.35,2.25,2.25,0,0,1-1.08.92,4.89,4.89,0,0,1-2,.34,11.55,11.55,0,0,1-1.53-.1A6.42,6.42,0,0,1,191.7,67V64.75a7.29,7.29,0,0,0,1.54.5,6.91,6.91,0,0,0,1.24.15,1.87,1.87,0,0,0,.68-.1.33.33,0,0,0,.21-.31.36.36,0,0,0-.14-.3,2.45,2.45,0,0,0-.52-.29l-1-.44a5.21,5.21,0,0,1-1.11-.6,2.11,2.11,0,0,1-.66-.77,2.68,2.68,0,0,1-.22-1.11,2,2,0,0,1,.91-1.77,4.25,4.25,0,0,1,2.39-.59,6,6,0,0,1,1.5.17,8.54,8.54,0,0,1,1.44.5l-.75,1.79a8.3,8.3,0,0,0-1.2-.44,4.46,4.46,0,0,0-1-.16,1.09,1.09,0,0,0-.5.09.26.26,0,0,0-.18.24.37.37,0,0,0,.12.27,2.24,2.24,0,0,0,.47.26l1,.41a5.41,5.41,0,0,1,1.16.61,2,2,0,0,1,.68.78A2.61,2.61,0,0,1,198,64.8Z"/><path class="cls-2" d="M206.88,59.12a4.59,4.59,0,0,1,2,.4,2.92,2.92,0,0,1,1.31,1.22,4.05,4.05,0,0,1,.46,2V64h-4.94a1.46,1.46,0,0,0,.47,1,1.82,1.82,0,0,0,1.28.4,6,6,0,0,0,1.38-.15,6.94,6.94,0,0,0,1.29-.46v2a4.77,4.77,0,0,1-1.27.44,8.29,8.29,0,0,1-1.73.15A5.11,5.11,0,0,1,205,67a3.23,3.23,0,0,1-1.5-1.33,4.39,4.39,0,0,1-.55-2.33,5,5,0,0,1,.49-2.37,3.14,3.14,0,0,1,1.39-1.38A4.51,4.51,0,0,1,206.88,59.12ZM207,61a1.17,1.17,0,0,0-.82.3,1.42,1.42,0,0,0-.38,1h2.37a1.55,1.55,0,0,0-.14-.65,1.07,1.07,0,0,0-.39-.45A1.11,1.11,0,0,0,207,61Z"/><path class="cls-2" d="M217.23,59.12a2.89,2.89,0,0,1,2,.7,2.82,2.82,0,0,1,.79,2.24v5.2h-2.77V62.9a2.43,2.43,0,0,0-.23-1.21.77.77,0,0,0-.73-.4,1,1,0,0,0-1.06.63,4.92,4.92,0,0,0-.27,1.84v3.5h-2.76v-8h2.09l.37,1.06h.11a2.67,2.67,0,0,1,.6-.65,2.53,2.53,0,0,1,.82-.41A3.23,3.23,0,0,1,217.23,59.12Z"/><path class="cls-2" d="M227.08,56a2.16,2.16,0,0,1,1,.25,1.3,1.3,0,0,1,0,1.95,2.05,2.05,0,0,1-1,.25,2,2,0,0,1-1-.25,1.32,1.32,0,0,1,0-1.95A2.07,2.07,0,0,1,227.08,56Zm1.37,3.23v8h-2.76v-8Z"/><path class="cls-2" d="M240.16,59.12a2.87,2.87,0,0,1,2.09.7,3,3,0,0,1,.73,2.24v5.2h-2.77V62.91a2.42,2.42,0,0,0-.24-1.27.8.8,0,0,0-.72-.35.93.93,0,0,0-.93.58,4.11,4.11,0,0,0-.26,1.66v3.73h-2.77V62.91a3.41,3.41,0,0,0-.11-.94,1,1,0,0,0-.3-.52.81.81,0,0,0-.52-.16,1,1,0,0,0-.74.28,1.73,1.73,0,0,0-.37.84,7.44,7.44,0,0,0-.1,1.35v3.5h-2.77v-8h2.09l.4,1H233a2.15,2.15,0,0,1,.55-.58,2.68,2.68,0,0,1,.79-.41,3.78,3.78,0,0,1,1.06-.14,3.17,3.17,0,0,1,1.46.29,2.54,2.54,0,0,1,.93.82h.08a2.54,2.54,0,0,1,1-.82A3,3,0,0,1,240.16,59.12Z"/><path class="cls-2" d="M249.75,59.12a2.41,2.41,0,0,1,2.08,1.06,5.27,5.27,0,0,1,.76,3.06,6.18,6.18,0,0,1-.38,2.3,3.11,3.11,0,0,1-1.05,1.39,2.49,2.49,0,0,1-1.5.48,2.76,2.76,0,0,1-1-.15,2.23,2.23,0,0,1-.65-.35,2.91,2.91,0,0,1-.43-.43h-.09a5.11,5.11,0,0,1,.06.59c0,.22,0,.46,0,.74v2.93h-2.76V59.26h2.24l.39,1h.13a3.16,3.16,0,0,1,.48-.57,2.18,2.18,0,0,1,.69-.43A2.76,2.76,0,0,1,249.75,59.12Zm-1,2.17a1,1,0,0,0-.64.19,1,1,0,0,0-.33.57,4.18,4.18,0,0,0-.12,1v.22a4.69,4.69,0,0,0,.1,1.07,1.22,1.22,0,0,0,.34.66,1,1,0,0,0,.66.22.87.87,0,0,0,.58-.2,1.19,1.19,0,0,0,.35-.63,4.36,4.36,0,0,0,.12-1.14,3,3,0,0,0-.27-1.49A.87.87,0,0,0,248.71,61.29Z"/><path class="cls-2" d="M259,59.12l.47,0,.37.05-.25,2.61a1.39,1.39,0,0,0-.35-.06,4.37,4.37,0,0,0-.59,0,3.87,3.87,0,0,0-.56.05,1.9,1.9,0,0,0-.56.21,1.19,1.19,0,0,0-.43.48,1.8,1.8,0,0,0-.17.87v3.93h-2.77v-8h2.06l.43,1.28h.14a2.59,2.59,0,0,1,.56-.72,2.46,2.46,0,0,1,.77-.51A2.08,2.08,0,0,1,259,59.12Z"/><path class="cls-2" d="M264.56,59.12a4.59,4.59,0,0,1,2,.4,2.92,2.92,0,0,1,1.31,1.22,4.05,4.05,0,0,1,.46,2V64H263.4a1.46,1.46,0,0,0,.47,1,1.82,1.82,0,0,0,1.28.4,6,6,0,0,0,1.38-.15,6.94,6.94,0,0,0,1.29-.46v2a4.77,4.77,0,0,1-1.27.44,8.29,8.29,0,0,1-1.73.15,5.11,5.11,0,0,1-2.16-.44,3.23,3.23,0,0,1-1.5-1.33,4.39,4.39,0,0,1-.55-2.33,5,5,0,0,1,.49-2.37,3.14,3.14,0,0,1,1.39-1.38A4.51,4.51,0,0,1,264.56,59.12Zm.1,1.88a1.17,1.17,0,0,0-.82.3,1.42,1.42,0,0,0-.38,1h2.37a1.55,1.55,0,0,0-.14-.65,1.07,1.07,0,0,0-.39-.45A1.09,1.09,0,0,0,264.66,61Z"/><path class="cls-2" d="M275.85,64.8a2.6,2.6,0,0,1-.34,1.35,2.16,2.16,0,0,1-1.08.92,4.89,4.89,0,0,1-2,.34,11.55,11.55,0,0,1-1.53-.1,6.42,6.42,0,0,1-1.37-.35V64.75a7.29,7.29,0,0,0,1.54.5,7,7,0,0,0,1.24.15,1.83,1.83,0,0,0,.68-.1.34.34,0,0,0,.22-.31.37.37,0,0,0-.15-.3,2.45,2.45,0,0,0-.52-.29l-1-.44a4.89,4.89,0,0,1-1.1-.6,1.94,1.94,0,0,1-.66-.77,2.53,2.53,0,0,1-.22-1.11,2,2,0,0,1,.9-1.77,4.27,4.27,0,0,1,2.4-.59,6,6,0,0,1,1.49.17,8.63,8.63,0,0,1,1.45.5L275,61.58a8.3,8.3,0,0,0-1.2-.44,4.46,4.46,0,0,0-1-.16,1.12,1.12,0,0,0-.5.09.26.26,0,0,0-.18.24.35.35,0,0,0,.13.27,1.8,1.8,0,0,0,.47.26l1,.41a5.56,5.56,0,0,1,1.15.61,2,2,0,0,1,.68.78A2.61,2.61,0,0,1,275.85,64.8Z"/><path class="cls-2" d="M278.79,56a2.16,2.16,0,0,1,1,.25,1.3,1.3,0,0,1,0,1.95,2.05,2.05,0,0,1-1,.25,2,2,0,0,1-1-.25,1.32,1.32,0,0,1,0-1.95A2.07,2.07,0,0,1,278.79,56Zm1.37,3.23v8H277.4v-8Z"/><path class="cls-2" d="M289.74,63.24a5.12,5.12,0,0,1-.28,1.78,3.4,3.4,0,0,1-.8,1.31,3.36,3.36,0,0,1-1.26.8,4.83,4.83,0,0,1-1.67.28,4.55,4.55,0,0,1-1.6-.28A3.48,3.48,0,0,1,282,65a4.89,4.89,0,0,1-.29-1.78,4.78,4.78,0,0,1,.48-2.24,3.19,3.19,0,0,1,1.39-1.4,4.49,4.49,0,0,1,2.15-.48,4.28,4.28,0,0,1,2.05.48,3.52,3.52,0,0,1,1.41,1.4A4.55,4.55,0,0,1,289.74,63.24Zm-.54-7.06v.14c-.17.14-.38.31-.65.5s-.54.4-.84.61l-.85.6-.71.46h-1.84v-.2l.6-.64.69-.76c.23-.26.42-.5.58-.71Zm-4.65,7.06a4.75,4.75,0,0,0,.12,1.16,1.39,1.39,0,0,0,.39.71,1,1,0,0,0,.69.25,1,1,0,0,0,.69-.25,1.45,1.45,0,0,0,.37-.71,4.75,4.75,0,0,0,.12-1.16,4.58,4.58,0,0,0-.12-1.14,1.34,1.34,0,0,0-.37-.69,1,1,0,0,0-.7-.24,1,1,0,0,0-.91.53A3.28,3.28,0,0,0,284.55,63.24Z"/><path class="cls-2" d="M296.33,59.12a2.92,2.92,0,0,1,2,.7,2.86,2.86,0,0,1,.78,2.24v5.2h-2.76V62.9a2.54,2.54,0,0,0-.23-1.21.78.78,0,0,0-.74-.4,1,1,0,0,0-1,.63,4.92,4.92,0,0,0-.27,1.84v3.5h-2.76v-8h2.08l.37,1.06h.11a2.52,2.52,0,0,1,.61-.65,2.48,2.48,0,0,1,.81-.41A3.33,3.33,0,0,1,296.33,59.12Z"/><path class="cls-2" d="M304.12,64.49V62.28h4v2.21Z"/><ellipse class="cls-1" cx="43.05" cy="42.52" rx="43.05" ry="42.52"/><path class="cls-3" d="M61.9,16.58,49.58,21.76a16.21,16.21,0,0,0-3.47-.94,21.94,21.94,0,0,0-7,.11,25,25,0,0,0-6.64,2.13,22.89,22.89,0,0,0-5.6,3.81,17.72,17.72,0,0,0-3.85,5,18,18,0,0,0-2,7.68,10.92,10.92,0,0,0,4.11,9.13,1.9,1.9,0,0,0,1.31.4,1.71,1.71,0,0,0,1.21-.69A1.63,1.63,0,0,0,28,47.17a1.78,1.78,0,0,0-.7-1.23,7.62,7.62,0,0,1-2.74-6.31A13,13,0,0,1,26.47,33,17.15,17.15,0,0,1,30,28.79l.17.05s14.15,4.85,12.74,3.77C40.67,30.9,41.78,23.08,47.7,25c.43.15,3.72,1.79,4.95,3.6A9.57,9.57,0,0,1,53.91,31a10.26,10.26,0,0,1,.48,2.38,9.52,9.52,0,0,1,0,2.21c-.11.7-.23,1.33-.36,1.9a14.23,14.23,0,0,1-2,4.31,16.89,16.89,0,0,1-3.26,3.54,17.7,17.7,0,0,1-4,2.3A22.22,22.22,0,0,1,40,49.12l-.68-14.8a1.88,1.88,0,0,0-.6-1.22,1.79,1.79,0,0,0-1.28-.49,2,2,0,0,0-1.26.6,1.75,1.75,0,0,0-.47,1.26l1,21.76h0A1.28,1.28,0,0,0,36,57c-.76-.55-1.43-1.09-2.15-1.56a19,19,0,0,0-8.74-3.15c-.55,0-.83.1-1,.61-.38,1.17-.87,2.3-1.17,3.47a13.06,13.06,0,0,0,.49,8.59c.89,2.09.92,2.1,3.2,1.82a10.44,10.44,0,0,0,5.27-1.66c1.31-1,2.54-2.11,3.76-3.22a1.18,1.18,0,0,0,.25-1v0a7.88,7.88,0,0,0,.41,1,3.84,3.84,0,0,0,.68,1l.54,11.85a1.81,1.81,0,0,0,.6,1.21,1.77,1.77,0,0,0,1.27.49l.41-.11a1.87,1.87,0,0,0,1-.63,1.59,1.59,0,0,0,.32-1.12L40.56,62c.08-.15.14-.3.21-.46.5.41,1,.79,1.49,1.24a13.46,13.46,0,0,0,9.4,4.2A1.25,1.25,0,0,0,53,66.18c2.23-4.59,1.76-9.08-.49-13.5a1,1,0,0,0-.78-.39,24.1,24.1,0,0,0-3.4.41,14.77,14.77,0,0,0-7.19,3.56,1.24,1.24,0,0,0-.31.6,1,1,0,0,0-.43-.47l-.13,0-.17-3.71c.4-.06.78-.13,1.15-.21s.77-.17,1.19-.28.84-.23,1.24-.35.81-.26,1.22-.41a20.84,20.84,0,0,0,6-3.25,17.65,17.65,0,0,0,4-4.36,19.12,19.12,0,0,0,2.48-5.31,14.59,14.59,0,0,0,.45-6,12.28,12.28,0,0,0-.76-3,23.1,23.1,0,0,0,3.67-6.76c-1.93,1.75-3.75,3-5.31,3.19C55.55,22.7,58.62,19.63,61.9,16.58Zm-33,39.34a5.26,5.26,0,0,1,1,.11,6.76,6.76,0,0,1,1,.27c.36.13.72.32,1.1.48.75.32,1.51.63,2.07.89l.93.42,0,.07-1-.26c-.59-.15-1.38-.38-2.17-.6-.39-.11-.79-.2-1.16-.32a7.23,7.23,0,0,1-1-.43,4.64,4.64,0,0,1-.88-.57Zm3.31,5.36c-.37.19-.74.38-1.1.54s-.69.29-1,.39l-.72.23-.29.07v0l.24-.16c.15-.1.38-.22.65-.38s.59-.31.95-.47.74-.31,1.13-.46c1.53-.63,3.08-1.22,3.08-1.22l0,0S33.68,60.56,32.19,61.28Zm12.05-4.55,1-.4c.34-.12.65-.21.93-.28s.5-.12.67-.14l.26,0v0L46.9,56l-.61.31c-.26.12-.56.24-.89.36L44.34,57c-1.44.45-2.89.86-2.89.86v0S42.83,57.27,44.24,56.73Zm-2.78,3.18.95.19,2.08.47c.37.09.76.15,1.11.24a6.76,6.76,0,0,1,.92.37,4.53,4.53,0,0,1,.85.53l0,.06a4,4,0,0,1-1,0,5.41,5.41,0,0,1-1-.2c-.35-.11-.7-.28-1.06-.41-.73-.28-1.45-.55-2-.77L41.44,60Z"/><path class="cls-2" d="M78.31,44.17a34.45,34.45,0,0,1-3.73,15.61,35.2,35.2,0,0,1-10,12,35.63,35.63,0,0,1-31.15,5.88A34.74,34.74,0,0,1,7.9,41.27a34.33,34.33,0,0,1,4.95-15.1,35.38,35.38,0,0,1,26-16.6,39.4,39.4,0,0,1,4.2-.23,1,1,0,0,0,0-2.07,38,38,0,0,0-16.86,4A37.49,37.49,0,0,0,13.36,21.79,36.39,36.39,0,0,0,6.42,36.88,36.51,36.51,0,0,0,15.23,68.8a37.56,37.56,0,0,0,59.14-4.52,36.68,36.68,0,0,0,5.78-15.82,36.18,36.18,0,0,0,.25-4.29,1,1,0,0,0-2.09,0Z"/><ellipse class="cls-2" cx="43.05" cy="8.3" rx="3.35" ry="3.3"/></g></g></svg>